<svg xmlns="http://www.w3.org/2000/svg" width="32" height="32" viewBox="0 0 32 32"><defs><clipPath id="a"><path fill="#fff" d="M1070 476a16 16 0 1 1 0 32 16 16 0 0 1 0-32z"/></clipPath></defs><path fill="none" stroke="#fff" stroke-miterlimit="50" stroke-width="4" d="M1070 476a16 16 0 1 1 0 32 16 16 0 0 1 0-32z" clip-path="url(&quot;#a&quot;)" transform="translate(-1054 -476)"/><path fill="#fff" d="M18.88 16.46l-4.06 3.97a.66.66 0 0 1-.93 0 .63.63 0 0 1 0-.92L17.48 16l-3.59-3.51a.63.63 0 0 1 0-.92.67.67 0 0 1 .93 0l4.06 3.97c.13.13.2.3.2.46 0 .16-.07.33-.2.46z"/></svg>
